<?xml version="1.0" encoding="UTF-8"?>
<svg xmlns="http://www.w3.org/2000/svg" width="123" height="87" viewBox="0 0 123 87" fill="none">
  <path fill-rule="evenodd" clip-rule="evenodd" d="M97.0977 72.6485L97.6236 70.0326H98.7193C98.9969 70.0326 99.2015 70.0618 99.333 70.1202C99.4644 70.1787 99.5667 70.281 99.6544 70.4125C99.7274 70.5441 99.7713 70.7194 99.7713 70.9386C99.7713 71.2455 99.6982 71.5378 99.5521 71.8155C99.406 72.0932 99.2307 72.2978 98.9969 72.4293C98.7632 72.5755 98.471 72.6339 98.1057 72.6339H97.0977V72.6485ZM97.7113 72.2832H98.0181C98.2664 72.2832 98.471 72.2247 98.6317 72.1224C98.7924 72.0201 98.9239 71.8594 99.0261 71.6401C99.1284 71.4355 99.1722 71.2163 99.1722 70.9825C99.1722 70.7779 99.0992 70.6171 98.9677 70.5294C98.8362 70.4418 98.5879 70.3833 98.2518 70.3833H98.0911L97.7113 72.2832ZM101.583 72.4585C101.393 72.5462 101.218 72.6047 101.057 72.6339C100.896 72.6631 100.75 72.6778 100.633 72.6778C100.487 72.6778 100.356 72.6485 100.239 72.5901C100.122 72.5316 100.034 72.4439 99.9904 72.3416C99.9466 72.2393 99.9174 72.137 99.9174 72.0201C99.9174 71.7863 99.9758 71.5671 100.093 71.3479C100.21 71.1286 100.37 70.9533 100.56 70.8363C100.75 70.7194 100.955 70.6464 101.159 70.6464C101.32 70.6464 101.437 70.6902 101.524 70.7633C101.612 70.8363 101.656 70.9386 101.656 71.0556C101.656 71.2017 101.612 71.3332 101.51 71.4648C101.422 71.5963 101.276 71.6986 101.086 71.7863C100.896 71.874 100.677 71.9178 100.429 71.9324C100.429 72.0786 100.473 72.1809 100.546 72.2393C100.619 72.2832 100.706 72.3124 100.794 72.3124C100.882 72.3124 101.013 72.2832 101.159 72.2393C101.32 72.1955 101.481 72.1224 101.641 72.0201L101.583 72.4585ZM100.487 71.6401C100.721 71.6401 100.896 71.5963 101.013 71.494C101.13 71.3917 101.188 71.2894 101.188 71.1871C101.188 71.1432 101.174 71.0994 101.145 71.0702C101.115 71.0409 101.072 71.0117 101.013 71.0117C100.925 71.0117 100.823 71.0702 100.721 71.1725C100.604 71.2748 100.531 71.4355 100.487 71.6401ZM101.919 72.5608L101.992 72.1809C102.24 72.2978 102.445 72.3562 102.62 72.3562C102.693 72.3562 102.752 72.3416 102.81 72.2978C102.854 72.2539 102.883 72.2101 102.883 72.137C102.883 72.0932 102.869 72.064 102.854 72.0347C102.839 72.0055 102.781 71.947 102.708 71.8594L102.576 71.7278C102.445 71.5963 102.357 71.494 102.328 71.4209C102.299 71.3479 102.284 71.2748 102.284 71.2163C102.284 71.0848 102.343 70.9533 102.474 70.8363C102.606 70.7194 102.795 70.661 103.058 70.661C103.248 70.661 103.438 70.6902 103.614 70.734L103.541 71.0994C103.365 71.0263 103.205 70.9825 103.073 70.9825C102.985 70.9825 102.912 70.9971 102.869 71.0409C102.825 71.0848 102.795 71.1286 102.795 71.1871C102.795 71.2309 102.81 71.2602 102.825 71.304C102.839 71.3332 102.898 71.3917 102.971 71.4648L103.117 71.6109C103.219 71.6986 103.292 71.7863 103.336 71.8594C103.38 71.9324 103.409 72.0201 103.409 72.1078C103.409 72.2832 103.336 72.4147 103.205 72.5316C103.058 72.6485 102.869 72.6924 102.62 72.6924C102.372 72.6924 102.153 72.6485 101.919 72.5608ZM105.002 72.6485L105.162 71.8447C105.031 72.0786 104.885 72.2832 104.709 72.4439C104.534 72.6047 104.373 72.6924 104.213 72.6924C104.081 72.6924 103.993 72.6339 103.92 72.5316C103.847 72.4293 103.804 72.327 103.804 72.2101C103.804 71.9763 103.877 71.7278 104.023 71.4502C104.169 71.1871 104.344 70.9825 104.534 70.851C104.724 70.7194 104.914 70.661 105.104 70.661C105.177 70.661 105.279 70.6756 105.381 70.7048L105.557 69.8572H106.083L105.528 72.6485H105.002ZM105.25 71.3771L105.308 71.0556C105.221 71.0117 105.148 70.9971 105.06 70.9971C104.958 70.9971 104.855 71.0409 104.739 71.1286C104.636 71.2163 104.534 71.3625 104.446 71.5817C104.359 71.7863 104.315 71.9617 104.315 72.0786C104.315 72.1078 104.33 72.1516 104.344 72.1809C104.359 72.2101 104.388 72.2247 104.417 72.2247C104.505 72.2247 104.636 72.1224 104.812 71.9324C105.002 71.7278 105.148 71.5525 105.25 71.3771ZM107.792 72.4585C107.602 72.5462 107.427 72.6047 107.266 72.6339C107.105 72.6631 106.959 72.6778 106.842 72.6778C106.696 72.6778 106.565 72.6485 106.448 72.5901C106.331 72.5316 106.243 72.4439 106.2 72.3416C106.156 72.2393 106.127 72.137 106.127 72.0201C106.127 71.7863 106.185 71.5671 106.302 71.3479C106.419 71.1286 106.579 70.9533 106.769 70.8363C106.959 70.7194 107.164 70.6464 107.368 70.6464C107.529 70.6464 107.646 70.6902 107.734 70.7633C107.821 70.8363 107.865 70.9386 107.865 71.0556C107.865 71.2017 107.821 71.3332 107.719 71.4648C107.631 71.5963 107.485 71.6986 107.295 71.7863C107.105 71.874 106.886 71.9178 106.638 71.9324C106.638 72.0786 106.682 72.1809 106.755 72.2393C106.828 72.2832 106.915 72.3124 107.003 72.3124C107.091 72.3124 107.222 72.2832 107.368 72.2393C107.529 72.1955 107.69 72.1224 107.85 72.0201L107.792 72.4585ZM106.682 71.6401C106.915 71.6401 107.091 71.5963 107.208 71.494C107.325 71.3917 107.383 71.2894 107.383 71.1871C107.383 71.1432 107.368 71.0994 107.339 71.0702C107.31 71.0409 107.266 71.0117 107.208 71.0117C107.12 71.0117 107.018 71.0702 106.915 71.1725C106.813 71.2748 106.74 71.4355 106.682 71.6401ZM109.983 72.6485L110.436 70.3687H110.057L110.115 70.0764L111.035 70.0033L110.509 72.6485H109.983ZM113.285 71.5525C113.095 71.6694 112.905 71.7278 112.716 71.7278C112.511 71.7278 112.336 71.6694 112.19 71.5378C112.043 71.4209 111.985 71.2602 111.985 71.0702C111.985 70.8948 112.029 70.7048 112.131 70.5294C112.233 70.3541 112.365 70.2079 112.526 70.1056C112.686 70.0033 112.876 69.9595 113.066 69.9595C113.241 69.9595 113.402 70.0033 113.534 70.0764C113.665 70.1495 113.767 70.2664 113.84 70.4271C113.914 70.5733 113.943 70.7487 113.943 70.924C113.943 71.2309 113.87 71.5232 113.738 71.8155C113.607 72.1078 113.431 72.327 113.212 72.4732C112.993 72.6193 112.73 72.707 112.423 72.707C112.204 72.707 112 72.6778 111.795 72.6047L111.868 72.2247C111.97 72.2686 112.058 72.2978 112.117 72.327C112.19 72.3416 112.248 72.3709 112.306 72.3709C112.365 72.3855 112.409 72.3855 112.467 72.3855C112.672 72.3855 112.832 72.3124 112.964 72.1516C113.11 72.0055 113.212 71.8009 113.285 71.5525ZM113.417 70.7779C113.417 70.6317 113.388 70.5002 113.315 70.4125C113.241 70.3248 113.154 70.281 113.037 70.281C112.935 70.281 112.847 70.3102 112.774 70.3687C112.701 70.4271 112.628 70.5148 112.584 70.6171C112.54 70.7194 112.511 70.8363 112.511 70.9533C112.511 71.0848 112.54 71.1871 112.613 71.2602C112.672 71.3332 112.774 71.3771 112.891 71.3771C113.022 71.3771 113.154 71.3332 113.271 71.2309C113.358 71.1579 113.417 70.9971 113.417 70.7779ZM115.667 71.5525C115.477 71.6694 115.287 71.7278 115.097 71.7278C114.892 71.7278 114.717 71.6694 114.571 71.5378C114.425 71.4209 114.366 71.2602 114.366 71.0702C114.366 70.8948 114.41 70.7048 114.513 70.5294C114.615 70.3541 114.746 70.2079 114.907 70.1056C115.068 70.0033 115.258 69.9595 115.448 69.9595C115.623 69.9595 115.784 70.0033 115.915 70.0764C116.047 70.1495 116.163 70.2664 116.222 70.4271C116.295 70.5733 116.324 70.7487 116.324 70.924C116.324 71.2309 116.251 71.5232 116.12 71.8155C115.988 72.1078 115.813 72.327 115.594 72.4732C115.374 72.6193 115.112 72.707 114.805 72.707C114.586 72.707 114.381 72.6778 114.176 72.6047L114.25 72.2247C114.352 72.2686 114.439 72.2978 114.498 72.327C114.571 72.3416 114.629 72.3709 114.688 72.3709C114.746 72.3855 114.79 72.3855 114.849 72.3855C115.053 72.3855 115.214 72.3124 115.345 72.1516C115.491 72.0055 115.594 71.8009 115.667 71.5525ZM115.798 70.7779C115.798 70.6317 115.769 70.5002 115.696 70.4125C115.623 70.3248 115.535 70.281 115.418 70.281C115.316 70.281 115.228 70.3102 115.155 70.3687C115.082 70.4271 115.009 70.5148 114.965 70.6171C114.922 70.7194 114.892 70.8363 114.892 70.9533C114.892 71.0848 114.922 71.1871 114.995 71.2602C115.053 71.3332 115.155 71.3771 115.272 71.3771C115.404 71.3771 115.535 71.3332 115.652 71.2309C115.74 71.1579 115.798 70.9971 115.798 70.7779ZM117.128 72.6485L117.581 70.3687H117.201L117.259 70.0764L118.18 70.0033L117.654 72.6485H117.128Z" fill="#2A409A"></path>
  <path fill-rule="evenodd" clip-rule="evenodd" d="M62.6181 12.6415C72.2021 12.6415 80.0038 20.4603 80.0038 30.062C80.0038 31.8011 79.7408 33.4818 79.2733 35.0601C75.7377 35.1332 72.8742 38.0269 72.8742 41.5928C72.8742 42.3674 73.0057 43.1127 73.2687 43.8142C70.3175 46.1087 66.6212 47.4824 62.6181 47.4824C53.0341 47.4824 45.2324 39.6637 45.2324 30.062C45.2324 20.4603 53.0487 12.6415 62.6181 12.6415Z" fill="#FEBF2B"></path>
  <path d="M51.9087 31.5088C51.8795 31.6403 51.7626 31.728 51.6311 31.6988C51.4996 31.6696 51.412 31.5526 51.4412 31.4211C52.6538 25.4292 55.7365 21.5856 59.3597 19.7441C61.2298 18.7942 63.2459 18.385 65.2182 18.4873C67.1906 18.5896 69.1191 19.218 70.8284 20.3287C73.9695 22.404 76.3363 26.1745 76.7454 31.5088C76.76 31.6403 76.6577 31.7572 76.5262 31.7719C76.3947 31.7865 76.2779 31.6842 76.2633 31.5526C75.8688 26.3791 73.5897 22.7255 70.5654 20.7379C68.9437 19.6711 67.0883 19.0719 65.2036 18.9696C63.319 18.8673 61.3759 19.2619 59.5788 20.1826C56.0725 21.9363 53.0775 25.663 51.9087 31.5088Z" fill="white"></path>
  <path d="M55.942 22.974C55.8543 23.0763 55.7082 23.0763 55.606 22.9886C55.5037 22.9009 55.5037 22.7401 55.5914 22.6524C56.0151 22.1848 56.5118 21.7756 57.067 21.4248C59.3023 19.978 62.458 19.4226 65.4676 19.6272C68.4918 19.8318 71.3846 20.7818 73.0793 22.3309C73.4446 22.6671 73.7514 23.0178 73.9997 23.3978C74.0728 23.5147 74.0436 23.6608 73.9267 23.7339C73.8098 23.807 73.6637 23.7778 73.5907 23.6608C73.3715 23.3101 73.0793 22.9886 72.7579 22.6963C71.1362 21.2202 68.3603 20.3141 65.4384 20.1241C62.5164 19.9341 59.463 20.4603 57.3299 21.8486C56.804 22.1409 56.3365 22.5355 55.942 22.974Z" fill="white"></path>
  <path d="M47.4384 33.0433C47.3069 33.058 47.19 32.9556 47.1754 32.8241C47.1608 32.6926 47.2485 32.5611 47.38 32.5464L51.6022 32.0203H51.6168H51.6314L77.1255 32.108L77.6515 31.4796C77.7391 31.3773 77.8852 31.3627 77.9875 31.4503C78.0898 31.538 78.1044 31.6988 78.0167 31.8011L77.4177 32.5172L77.3447 32.6049H77.2424L51.6606 32.5172L47.4384 33.0433Z" fill="white"></path>
  <path d="M54.6699 32.1226H56.1308H54.6699ZM56.1308 32.488H54.6699C54.553 32.488 54.4653 32.4441 54.3923 32.3564C54.3192 32.2833 54.2754 32.181 54.2754 32.0641V31.3626C54.2754 31.2457 54.3192 31.158 54.3923 31.0703C54.4653 30.9973 54.5676 30.9388 54.6845 30.9388H56.1454C56.2623 30.9388 56.35 30.9827 56.423 31.0703C56.4961 31.1434 56.5399 31.2457 56.5399 31.3626V32.0641C56.5399 32.181 56.4961 32.2833 56.423 32.3564C56.3354 32.4295 56.2331 32.488 56.1308 32.488ZM56.1308 32.1226C56.1454 32.1226 56.1454 32.1226 56.1601 32.108C56.1747 32.0934 56.1747 32.0787 56.1747 32.0641L56.1308 32.1226ZM56.1601 32.0641V31.3626C56.1601 31.348 56.1601 31.3334 56.1454 31.3188C56.1454 31.3188 56.1308 31.3042 56.1162 31.3042H54.6552C54.6406 31.3042 54.6406 31.3042 54.626 31.3188C54.6114 31.3334 54.6114 31.348 54.6114 31.3626V32.0641C54.6114 32.0787 54.6114 32.0934 54.626 32.108C54.626 32.108 54.6406 32.1226 54.6552 32.1226L56.1601 32.0641Z" fill="white"></path>
  <path fill-rule="evenodd" clip-rule="evenodd" d="M56.4675 33.6864L75.1389 33.6425L55.6348 37.3546L56.4675 33.6864Z" fill="white"></path>
  <path d="M51.3978 33.8033C51.2663 33.8033 51.1641 33.701 51.1641 33.5694C51.1641 33.4379 51.2663 33.3356 51.3978 33.3356H77.038C77.1695 33.3356 77.2718 33.4379 77.2718 33.5694C77.2718 33.701 77.1695 33.8033 77.038 33.8033H51.3978Z" fill="white"></path>
  <path fill-rule="evenodd" clip-rule="evenodd" d="M56.9352 33.6133L54.846 41.2567C53.3558 42.4697 50.6676 36.3316 51.7341 33.6133H56.9352Z" fill="white"></path>
  <path d="M57.1692 33.6717L55.08 41.3151L55.0654 41.3882L55.007 41.432C54.8024 41.6074 54.5687 41.6659 54.3349 41.6366C53.9405 41.5928 53.5314 41.2859 53.1515 40.8182C52.8009 40.3798 52.4503 39.7806 52.1581 39.0937C51.3837 37.3107 50.9454 34.9578 51.5152 33.511L51.5737 33.3502H51.7344H56.9355H57.2569L57.1692 33.6717ZM54.6417 41.1105L56.6287 33.8471H51.9097C51.486 35.177 51.8951 37.2815 52.5964 38.9037C52.8739 39.5468 53.1954 40.1021 53.5168 40.5113C53.8236 40.8913 54.1158 41.1251 54.3788 41.1544C54.4664 41.1836 54.5541 41.169 54.6417 41.1105Z" fill="white"></path>
  <path d="M51.8499 35.937C51.8353 35.8493 51.8937 35.7762 51.9814 35.7616C52.069 35.747 52.1421 35.8055 52.1567 35.8931C52.2151 36.317 52.2882 36.7554 52.4051 37.1792C52.5073 37.603 52.6534 38.0415 52.8288 38.4507C52.858 38.5237 52.8288 38.6114 52.7557 38.6553C52.6827 38.6845 52.595 38.6553 52.5512 38.5822C52.3612 38.1438 52.2151 37.7053 52.0983 37.2523C51.9814 36.7992 51.9083 36.3608 51.8499 35.937Z" fill="#FFD329"></path>
  <path d="M60.1191 27.4898V23.6754H62.1937V24.4208H61.0103V25.1223H62.1061V25.8822H61.0103V26.7153H62.1937V27.4898H60.1191ZM63.6401 25.3123C63.6547 25.3123 63.6693 25.3123 63.6839 25.3123C63.6985 25.3123 63.7278 25.3123 63.757 25.3123C63.9323 25.3123 64.0638 25.2684 64.1368 25.1807C64.2099 25.0931 64.2537 24.9615 64.2537 24.7715C64.2537 24.6108 64.2099 24.5085 64.1222 24.4354C64.0346 24.3623 63.9031 24.3331 63.6985 24.3331H63.6255V25.3123H63.6401ZM62.7489 27.4898V23.6754H63.6255C63.9469 23.6754 64.1953 23.6901 64.3414 23.7193C64.5021 23.7485 64.6336 23.7924 64.7358 23.8654C64.8819 23.9531 64.9842 24.0847 65.0573 24.2454C65.1303 24.4208 65.1741 24.6108 65.1741 24.8592C65.1741 25.2538 65.0719 25.5461 64.8673 25.7361C64.6628 25.9407 64.3706 26.043 63.9615 26.043H63.6547V27.5044H62.7489V27.4898ZM65.6416 27.4898V23.6754H66.5328V27.5044H65.6416V27.4898ZM66.9419 26.5837H67.6578C67.6724 26.7299 67.7016 26.8468 67.7455 26.9052C67.7893 26.9783 67.8623 27.0075 67.9646 27.0075C68.0377 27.0075 68.1107 26.9783 68.1545 26.9345C68.213 26.8906 68.2276 26.8322 68.2276 26.7591C68.2276 26.7006 68.213 26.6422 68.1691 26.5983C68.1399 26.5545 68.0523 26.5107 67.9354 26.4522C67.9062 26.4376 67.8623 26.423 67.8185 26.3937C67.5263 26.2622 67.3218 26.1307 67.2195 26.0138C67.1319 25.9407 67.0734 25.8384 67.0296 25.7361C66.9857 25.6338 66.9711 25.5169 66.9711 25.4C66.9711 25.1369 67.0588 24.9323 67.2341 24.7715C67.4094 24.6108 67.6578 24.5377 67.95 24.5377C68.2714 24.5377 68.5052 24.6108 68.6805 24.7569C68.8558 24.9031 68.9289 25.1223 68.9289 25.4V25.4584H68.2276C68.2276 25.3123 68.1984 25.21 68.1545 25.1515C68.1107 25.0931 68.0523 25.0638 67.9646 25.0638C67.877 25.0638 67.8185 25.0784 67.7747 25.1369C67.7309 25.1807 67.7016 25.2392 67.7016 25.3123C67.7016 25.4438 67.8185 25.5607 68.0669 25.663C68.0961 25.6776 68.1253 25.6922 68.1399 25.6922C68.4613 25.8384 68.6805 25.9845 68.7974 26.1161C68.9142 26.2622 68.9581 26.4376 68.9581 26.6568C68.9581 26.9491 68.8704 27.1683 68.6951 27.3291C68.5198 27.4898 68.2568 27.5629 67.9354 27.5629C67.6286 27.5629 67.3802 27.4752 67.2049 27.3291C67.0296 27.1683 66.9419 26.9491 66.9419 26.6568V26.5837Z" fill="white"></path>
  <path d="M11.8492 54.3366C12.7988 52.8313 14.2306 52.0568 16.1153 52.0568C18.073 52.0568 19.6362 52.7729 20.7612 54.1905C21.9008 55.6227 22.4705 57.4641 22.4705 59.7586C22.4705 62.1992 21.8423 64.1283 20.5859 65.5605C19.3294 66.9928 17.7808 67.7089 15.9546 67.7089C14.3475 67.7089 13.0618 67.0658 12.0976 65.7944H12.0245V73.1162H9.48242V52.4075H11.7908V54.3366H11.8492ZM15.7792 65.6482C16.9626 65.6482 17.9415 65.1513 18.7158 64.1722C19.4901 63.193 19.87 61.7315 19.87 59.7732C19.87 57.9318 19.5047 56.5288 18.745 55.535C17.9999 54.5412 17.0357 54.0443 15.8815 54.0443C14.6835 54.0443 13.69 54.5997 12.9157 55.6958C12.1414 56.7918 11.7469 58.2241 11.7469 59.9778C11.7469 61.8338 12.1122 63.2368 12.8573 64.2014C13.6316 65.1659 14.5959 65.6482 15.7792 65.6482ZM33.574 52.8752L32.6974 55.2281C32.0692 54.8627 31.4556 54.6727 30.8566 54.6727C29.9069 54.6727 29.191 55.0966 28.6943 55.9442C28.2122 56.7918 27.9638 57.9902 27.9638 59.5248V67.3727H25.4217V52.4075H27.7301V54.6581H27.7885C28.592 52.9336 29.6586 52.0568 30.9588 52.0568C31.8354 52.0568 32.6974 52.3344 33.574 52.8752ZM41.2149 52.0568C43.2311 52.0568 44.9112 52.7144 46.2407 54.0297C47.5702 55.345 48.2422 57.2303 48.2422 59.6417C48.2422 62.5938 47.5264 64.6691 46.0946 65.8967C44.6628 67.1097 43.0411 67.7235 41.2295 67.7235C39.3449 67.7235 37.7086 67.0951 36.3206 65.8528C34.9327 64.596 34.2314 62.623 34.2314 59.8901C34.2314 57.2595 34.9035 55.3012 36.2476 54.0005C37.5625 52.7144 39.228 52.0568 41.2149 52.0568ZM41.2149 65.6482C42.6613 65.6482 43.757 65.1075 44.5167 64.0406C45.2618 62.9592 45.6417 61.5562 45.6417 59.8024C45.6417 57.9318 45.218 56.5142 44.3706 55.5642C43.5233 54.6143 42.4714 54.132 41.2149 54.132C39.9293 54.132 38.8774 54.6143 38.0446 55.5788C37.2118 56.5434 36.8028 57.9756 36.8028 59.8901C36.8028 61.79 37.2264 63.2222 38.0592 64.1868C38.892 65.1659 39.9439 65.6482 41.2149 65.6482ZM71.428 67.3727H68.9005V57.9172C68.9005 57.2303 68.8567 56.6311 68.7544 56.1342C68.6521 55.6373 68.4184 55.1989 68.0239 54.8189C67.6295 54.4389 67.0304 54.2489 66.1977 54.2489C65.2042 54.2489 64.3422 54.5997 63.6264 55.3012C62.9105 56.0027 62.5452 57.128 62.5452 58.6917V67.3727H60.0031V57.6395C60.0031 56.3388 59.784 55.4473 59.3165 54.965C58.8636 54.4828 58.2207 54.2489 57.3734 54.2489C56.2922 54.2489 55.3864 54.6289 54.6852 55.3742C53.9839 56.1196 53.6333 57.5372 53.6333 59.5978V67.3727H51.0912V52.4075H53.3703V54.4974H53.4287C54.4368 52.8752 55.927 52.0714 57.8993 52.0714C58.9951 52.0714 59.9009 52.2906 60.6167 52.729C61.318 53.1675 61.844 53.8251 62.1508 54.6874C63.2611 52.9336 64.7951 52.0568 66.7529 52.0568C68.3015 52.0568 69.4703 52.4806 70.2446 53.3136C71.0189 54.1466 71.3988 55.4035 71.3988 57.0841V67.3727H71.428ZM88.2147 60.5332H76.9943C77.0966 62.1846 77.5787 63.4561 78.4115 64.3329C79.2589 65.2098 80.2962 65.6482 81.5672 65.6482C82.5314 65.6482 83.3496 65.3852 84.007 64.8737C84.6645 64.3621 85.1612 63.5876 85.5118 62.55L88.1124 62.8715C87.6887 64.4352 86.9144 65.6336 85.7894 66.4666C84.6645 67.2997 83.2473 67.7235 81.5672 67.7235C79.3173 67.7235 77.5641 67.0366 76.2931 65.6628C75.0366 64.2891 74.3938 62.4038 74.3938 60.007C74.3938 57.6395 75.0074 55.725 76.2346 54.2635C77.4619 52.8021 79.1858 52.0568 81.4065 52.0568C82.5022 52.0568 83.5541 52.2906 84.5622 52.7729C85.5703 53.2551 86.4323 54.0735 87.1335 55.2135C87.8494 56.3826 88.2147 58.151 88.2147 60.5332ZM85.5995 58.4433C85.4972 56.9234 85.0151 55.8273 84.1824 55.155C83.335 54.4828 82.4146 54.1466 81.4211 54.1466C80.2231 54.1466 79.2442 54.5412 78.4699 55.345C77.6956 56.1488 77.2573 57.1864 77.1404 58.4433H85.5995ZM97.0974 67.3435C96.3523 67.4896 95.7095 67.5627 95.1982 67.5627C94.0878 67.5627 93.2843 67.3727 92.7729 66.9781C92.2616 66.5835 91.9548 66.0867 91.8379 65.4875C91.721 64.8883 91.6626 64.0552 91.6626 62.9738V54.3512H89.8217V52.3929H91.6626V48.6662L94.2047 47.1317V52.3929H96.7322V54.3658H94.2047V63.1345C94.2047 63.8799 94.2777 64.4206 94.4384 64.7421C94.5992 65.049 94.9936 65.2098 95.6218 65.2098C95.9871 65.2098 96.3669 65.1659 96.7468 65.0929L97.0974 67.3435ZM112.248 67.3727H109.589C109.34 66.9051 109.165 66.2766 109.063 65.5167C107.354 66.9928 105.527 67.7235 103.555 67.7235C101.977 67.7235 100.735 67.3289 99.8295 66.5397C98.909 65.7505 98.4561 64.6983 98.4561 63.4122C98.4561 62.17 98.8944 61.147 99.771 60.3432C100.648 59.5394 102.182 58.9986 104.344 58.7356L106.711 58.3848C107.602 58.2387 108.318 58.0633 108.888 57.8587C108.888 57.0987 108.873 56.558 108.814 56.2511C108.771 55.9442 108.625 55.6081 108.391 55.2719C108.157 54.9358 107.792 54.6581 107.28 54.4535C106.769 54.2489 106.097 54.1466 105.235 54.1466C104.139 54.1466 103.277 54.3512 102.649 54.7604C102.021 55.1696 101.583 55.915 101.349 57.0257L98.8652 56.7042C99.1428 55.1696 99.8441 54.0151 100.969 53.2551C102.094 52.4806 103.643 52.1006 105.615 52.1006C107.412 52.1006 108.727 52.3637 109.56 52.9044C110.407 53.4305 110.918 54.0736 111.108 54.8335C111.298 55.5788 111.4 56.558 111.4 57.7418V61.1616C111.4 63.2368 111.444 64.6398 111.517 65.3413C111.634 65.999 111.868 66.7005 112.248 67.3727ZM108.888 60.7816V59.8609C107.558 60.2993 105.951 60.6501 104.022 60.9131C102.109 61.1762 101.144 61.98 101.144 63.3391C101.144 64.026 101.407 64.596 101.919 65.0344C102.445 65.4875 103.175 65.7067 104.139 65.7067C105.396 65.7067 106.492 65.3413 107.441 64.5814C108.42 63.8506 108.888 62.5792 108.888 60.7816ZM117.873 67.3727H115.33V46.6932H117.873V67.3727Z" fill="#2A409A"></path>
  <path d="M8.43106 51.8668H7.10156V73.7447H8.43106V51.8668Z" fill="#FEBF2B"></path>
  <path d="M6.67705 51.8668H6.04883V73.7447H6.67705V51.8668Z" fill="#FEBF2B"></path>
  <path d="M63.4941 32.1226H64.9551H63.4941ZM64.9551 32.488H63.4941C63.3772 32.488 63.2895 32.4441 63.2165 32.3564C63.1434 32.2833 63.0996 32.181 63.0996 32.0641V31.3626C63.0996 31.2457 63.1434 31.158 63.2165 31.0703C63.2895 30.9973 63.3918 30.9388 63.5087 30.9388H64.9697C65.0866 30.9388 65.1742 30.9827 65.2473 31.0703C65.3203 31.1434 65.3641 31.2457 65.3641 31.3626V32.0641C65.3641 32.181 65.3203 32.2833 65.2473 32.3564C65.1742 32.4295 65.0719 32.488 64.9551 32.488ZM64.9551 32.1226C64.9697 32.1226 64.9697 32.1226 64.9843 32.108C64.9989 32.0934 64.9989 32.0787 64.9989 32.0641L64.9551 32.1226ZM64.9989 32.0641V31.3626C64.9989 31.348 64.9989 31.3334 64.9843 31.3188C64.9843 31.3188 64.9697 31.3042 64.9551 31.3042H63.4941C63.4795 31.3042 63.4795 31.3042 63.4649 31.3188C63.4502 31.3334 63.4502 31.348 63.4502 31.3626V32.0641C63.4502 32.0787 63.4502 32.0934 63.4649 32.108C63.4649 32.108 63.4795 32.1226 63.4941 32.1226L64.9989 32.0641Z" fill="white"></path>
  <path d="M72.3476 32.2103H73.8086H72.3476ZM73.8086 32.5903H72.3476C72.2307 32.5903 72.1431 32.5318 72.07 32.4588C71.997 32.3857 71.9531 32.2688 71.9531 32.1519V31.4065C71.9531 31.2896 71.997 31.1873 72.07 31.0996C72.1431 31.0119 72.2453 30.9681 72.3622 30.9681H73.8232C73.9401 30.9681 74.0277 31.0265 74.1008 31.0996C74.1738 31.1727 74.2177 31.2896 74.2177 31.4065V32.1519C74.2177 32.2688 74.1738 32.3711 74.1008 32.4588C74.0131 32.5318 73.9108 32.5903 73.8086 32.5903ZM73.8086 32.2103C73.8232 32.2103 73.8232 32.2103 73.8378 32.1957C73.8524 32.1811 73.8524 32.1665 73.8524 32.1519L73.8086 32.2103ZM73.8378 32.1519V31.4065C73.8378 31.3919 73.8378 31.3773 73.8232 31.3627C73.8232 31.3627 73.8086 31.3481 73.794 31.3481H72.333C72.3184 31.3481 72.3184 31.3481 72.3038 31.3627C72.2892 31.3773 72.2891 31.3919 72.2891 31.4065V32.1519C72.2891 32.1665 72.2892 32.1811 72.3038 32.1957C72.3038 32.1957 72.3184 32.2103 72.333 32.2103L73.8378 32.1519Z" fill="white"></path>
  <path d="M52.3477 36.0831C52.3477 36.0393 52.3769 35.9954 52.4207 35.9808C52.4645 35.9808 52.5084 36.0101 52.523 36.0539C52.5814 36.4777 52.6399 36.77 52.7275 37.0623C52.8152 37.3546 52.9321 37.6469 53.122 38.0707C53.1366 38.1145 53.122 38.173 53.0782 38.1876C53.0343 38.2022 52.9759 38.1876 52.9613 38.1438C52.7713 37.72 52.6399 37.413 52.5522 37.1208C52.4645 36.8139 52.4061 36.507 52.3477 36.0831Z" fill="#FFD329"></path>
  <path fill-rule="evenodd" clip-rule="evenodd" d="M79.6376 35.5132C77.899 35.5132 76.3212 36.2293 75.1816 37.3692C74.042 38.5091 73.3262 40.0875 73.3262 41.8266C73.3262 43.5657 74.0274 45.1441 75.1816 46.284C76.3212 47.424 77.899 48.1401 79.6376 48.1401C80.7626 48.1401 81.8145 47.8478 82.7349 47.3217C82.7057 47.1317 82.6765 46.9271 82.6765 46.7225C82.6765 44.9833 84.0206 43.5657 85.7299 43.4342C85.8614 42.9227 85.9344 42.382 85.9344 41.812C85.9344 40.0729 85.2186 38.4945 84.079 37.3546C82.954 36.2293 81.3762 35.5132 79.6376 35.5132Z" fill="#FEBF2B"></path>
  <path fill-rule="evenodd" clip-rule="evenodd" d="M86.0963 43.7704C85.249 43.7704 84.4746 44.1211 83.9195 44.6765C83.3643 45.2318 83.0137 46.0064 83.0137 46.854C83.0137 47.7016 83.3643 48.4762 83.9195 49.0316C84.4746 49.5869 85.249 49.9377 86.0963 49.9377C86.9437 49.9377 87.718 49.5869 88.2732 49.0316C88.8284 48.4762 89.179 47.7016 89.179 46.854C89.179 46.0064 88.8284 45.2318 88.2732 44.6765C87.7034 44.1211 86.9437 43.7704 86.0963 43.7704Z" fill="#FEBF2B"></path>
</svg>
